<svg xmlns="http://www.w3.org/2000/svg" viewBox="0 0 400 100" width="400" height="100">
  <!-- Square icon -->
  <rect x="2" y="2" width="60" height="60" fill="none" stroke="#1f2937" stroke-width="2.5" rx="2"/>
  <!-- Test tube -->
  <path d="M20 15 L20 40 Q20 48 28 48 Q36 48 36 40 L36 15" fill="none" stroke="#1f2937" stroke-width="2.5" stroke-linecap="round" stroke-linejoin="round"/>
  <line x1="20" y1="15" x2="36" y2="15" stroke="#1f2937" stroke-width="2.5" stroke-linecap="round"/>
  <!-- Liquid inside test tube -->
  <path d="M22 32 L22 40 Q22 46 28 46 Q34 46 34 40 L34 32 Z" fill="#008f39" opacity="0.15"/>
  <path d="M22 32 L22 40 Q22 46 28 46 Q34 46 34 40 L34 32" fill="none" stroke="#008f39" stroke-width="1.5"/>
  <!-- Drop below -->
  <path d="M28 55 Q28 62 28 62 Q28 62 28 55" fill="none" stroke="#1f2937" stroke-width="2.5" stroke-linecap="round"/>
  <path d="M28 54 Q23 62 28 66 Q33 62 28 54" fill="#008f39" opacity="0.9"/>
  <!-- Divider line -->
  <line x1="78" y1="8" x2="78" y2="78" stroke="#1f2937" stroke-width="2"/>
  <!-- QSS text -->
  <text x="92" y="50" font-family="Georgia, 'Times New Roman', serif" font-size="54" font-weight="400" fill="#1f2937">QSS</text>
  <!-- Subtitle -->
  <text x="92" y="76" font-family="'Segoe UI', Arial, sans-serif" font-size="14" font-weight="800" letter-spacing="0.15" fill="#374151">QUÍMICOS SUPERIORES DEL SUR, S.R.L.</text>
</svg>
